<svg id="Capa_1" data-name="Capa 1" xmlns="http://www.w3.org/2000/svg" viewBox="0 0 914 231.41"><defs><style>.cls-1{fill:#f27321;}</style></defs><title>logo_ufd</title><path class="cls-1" d="M418,32.72h11.65V66.19c0,5,1.85,8,6.54,8s6.54-3.06,6.54-8V32.72h11.65V64.34c0,12.3-7,18.84-18.19,18.84S418,76.64,418,64.34Z" transform="translate(-15 -12.28)"/><path class="cls-1" d="M482.92,59.52c0-4.62-2.06-5.84-4.33-5.84-3.61,0-4.9,3.13-4.9,7.89V82.32H462.46V53.05a72.7,72.7,0,0,0-.28-7.75h10.23c.13,1.64.28,3.7.28,6.18h.13c1.72-4,4.56-6.74,10.46-6.74,8.18,0,10.88,6,10.88,13.35V82.32H482.92Z" transform="translate(-15 -12.28)"/><path class="cls-1" d="M502.32,29h11.24V39H502.32Zm0,16.28h11.24v37H502.32Z" transform="translate(-15 -12.28)"/><polygon class="cls-1" points="503.1 33.02 514.76 33.02 521.58 59.38 521.71 59.38 528.48 33.02 539.41 33.02 527.84 70.04 514.62 70.04 503.1 33.02"/><path class="cls-1" d="M590.15,66.76h-21.8c0,4.41,2.83,8.46,9.17,8.46A23.09,23.09,0,0,0,588,72.3l.22,8.45a34.7,34.7,0,0,1-11.72,2.14c-13,0-18.78-7.89-18.78-19.19,0-9.94,5.84-19,16.41-19,3.35,0,16.06,0,16.06,19.32Zm-10.22-6.11c0-4.7-1.21-9.11-5.84-9.11-5.74,0-5.74,7.12-5.74,9.11Z" transform="translate(-15 -12.28)"/><path class="cls-1" d="M596.79,53.05a74.31,74.31,0,0,0-.3-7.75h10.24c.06,2.2.21,4.47.29,6.67h.14c2.26-4,3.83-7.23,10.29-7.23h1.64V55.1a15.1,15.1,0,0,0-3.76-.42c-6.56,0-7.33,5.69-7.33,11.09V82.32H596.79Z" transform="translate(-15 -12.28)"/><path class="cls-1" d="M645.76,54.61a23.22,23.22,0,0,0-9-2c-2.91,0-4.2,1.42-4.2,2.7,0,2.27,1.65,3.06,7.75,5.33,3.83,1.42,7.75,3.84,7.75,10.8,0,8.24-6.18,11.43-13.64,11.43a38.28,38.28,0,0,1-12.15-1.76l.27-8.68A18.36,18.36,0,0,0,631.76,75c5.26,0,5.6-1.84,5.6-3.48s-2.91-2.34-7.74-4.34c-3.91-1.63-7.76-4.75-7.76-11.36,0-4,2.86-11.08,13.87-11.08A34.13,34.13,0,0,1,646,46.22Z" transform="translate(-15 -12.28)"/><path class="cls-1" d="M654.35,29h11.24V39H654.35Zm0,16.28h11.24v37H654.35Z" transform="translate(-15 -12.28)"/><path class="cls-1" d="M706.74,74c0,4.68.14,6.61.28,8.31H696.36a58.78,58.78,0,0,1-.28-5.9h-.16c-1.12,2.27-3.61,6.47-10.08,6.47-8.32,0-13-8.18-13-20,0-10,3.69-18.19,13-18.19,5.18,0,8.17,2.69,9.52,6h.15V29h11.23Zm-16.86.78c4.63,0,5.63-6.67,5.63-10.94,0-5.91-1.08-11.45-5.63-11.45-5,0-5.4,5.54-5.4,11.45,0,3.83.27,10.94,5.4,10.94" transform="translate(-15 -12.28)"/><path class="cls-1" d="M717.11,47.07c2.91-.93,7.88-2.33,11.94-2.33,13,0,16,5.4,16,13.64V71.87c0,5.48.08,8,.29,10.45H735.09l-.29-5.11h-.14c-.5,2.28-4.83,5.68-10.16,5.68-6.91,0-11.45-4.48-11.45-11.23,0-12.36,14.43-12.43,18.33-12.43h3.42c0-7.12-5.27-7.12-6.88-7.12-2.85,0-5.91.65-10.33,3.27ZM734.8,64.49c-4.47,0-11.52.28-11.52,6.46,0,4.83,3.91,4.83,4.84,4.83s6.68-.14,6.68-9.16Z" transform="translate(-15 -12.28)"/><path class="cls-1" d="M785.68,74c0,4.68.15,6.61.29,8.31H775.31a58.78,58.78,0,0,1-.28-5.9h-.15c-1.14,2.27-3.62,6.47-10.08,6.47-8.33,0-13-8.18-13-20,0-10,3.71-18.19,13-18.19,5.17,0,8.17,2.69,9.51,6h.14V29h11.23Zm-16.85.78c4.63,0,5.62-6.67,5.62-10.94,0-5.91-1.07-11.45-5.62-11.45-5,0-5.38,5.54-5.38,11.45,0,3.83.27,10.94,5.38,10.94" transform="translate(-15 -12.28)"/><path class="cls-1" d="M838.55,74c0,4.68.14,6.61.29,8.31H828.18a58.22,58.22,0,0,1-.29-5.9h-.14c-1.13,2.27-3.61,6.47-10.08,6.47-8.32,0-13-8.18-13-20,0-10,3.7-18.19,13-18.19,5.19,0,8.16,2.69,9.51,6h.14V29h11.23Zm-16.83.78c4.61,0,5.6-6.67,5.6-10.94,0-5.91-1.06-11.45-5.6-11.45-5,0-5.4,5.54-5.4,11.45,0,3.83.29,10.94,5.4,10.94" transform="translate(-15 -12.28)"/><path class="cls-1" d="M877.93,66.76H856.11c0,4.41,2.83,8.46,9.17,8.46a23.13,23.13,0,0,0,10.45-2.92l.21,8.45a34.72,34.72,0,0,1-11.74,2.14c-13,0-18.75-7.89-18.75-19.19,0-9.94,5.82-19,16.41-19,3.34,0,16.07,0,16.07,19.32Zm-10.25-6.11c0-4.7-1.2-9.11-5.82-9.11-5.75,0-5.75,7.12-5.75,9.11Z" transform="translate(-15 -12.28)"/><rect class="cls-1" x="869.89" y="16.74" width="11.23" height="53.3"/><polygon class="cls-1" points="403.47 87.54 430.97 87.54 430.97 96.22 414.69 96.22 414.69 107.74 430.34 107.74 430.34 116.41 414.69 116.41 414.69 137.17 403.47 137.17 403.47 87.54"/><path class="cls-1" d="M483.56,141.69a69.79,69.79,0,0,0,.29,7.76H473.61c-.13-1.65-.28-3.71-.28-6.2h-.14c-1.71,4.06-4.55,6.77-10.44,6.77-8.17,0-10.87-6-10.87-13.38V112.42H463.1v22.81c0,4.61,2.06,5.82,4.33,5.82,3.63,0,4.91-3.13,4.91-7.88V112.42h11.22Z" transform="translate(-15 -12.28)"/><path class="cls-1" d="M488.46,112.42h6.4v-7.61l10.94-3.49v11.1h7.26v7.88H505.8v17c0,3.62,1.65,4.61,3.77,4.61a8.39,8.39,0,0,0,3.69-.77V149a26.48,26.48,0,0,1-7.8,1c-5.83,0-10.88-2.85-10.88-11V120.3h-6.12Z" transform="translate(-15 -12.28)"/><path class="cls-1" d="M519,96.13h11.22v21.76h.16c1.33-3.34,4.32-6,9.51-6,9.32,0,13,8.25,13,18.19,0,11.79-4.68,20-13,20-6.47,0-8.95-4.21-10.09-6.48h-.15a56.27,56.27,0,0,1-.28,5.91H518.75c.13-1.72.28-3.64.28-8.32Zm16.84,23.39c-4.56,0-5.62,5.54-5.62,11.44,0,4.27,1,10.94,5.62,10.94,5.11,0,5.4-7.1,5.4-10.94,0-5.9-.43-11.44-5.4-11.44" transform="translate(-15 -12.28)"/><path class="cls-1" d="M576.31,111.85c11.36,0,17.41,7.88,17.41,19S587.67,150,576.31,150s-17.42-8-17.42-19.2,6-19,17.42-19m0,30.48c3.9,0,5.75-4.26,5.75-11.51s-1.85-11.3-5.75-11.3-5.76,4-5.76,11.3,1.85,11.51,5.76,11.51" transform="translate(-15 -12.28)"/><rect class="cls-1" x="585.97" y="83.85" width="11.22" height="53.32"/><path class="cls-1" d="M651.27,152.85c-2.77,8.67-6.66,12.36-12.92,12.36a27.14,27.14,0,0,1-6.76-.93L632,156a7,7,0,0,0,3.55.86c3.78,0,5.54-4.18,5.54-7.38l-12.86-37h11.66l6.88,25.09h.16l6.53-25.09h10.94Z" transform="translate(-15 -12.28)"/><path class="cls-1" d="M711.19,111.06a18.55,18.55,0,0,0-10.09-2.84c-7.83,0-12.8,6.33-12.8,16.34,0,9.67,5.63,16.2,13,16.2a21,21,0,0,0,10.15-2.62l.43,10.37a39.44,39.44,0,0,1-12.44,1.79c-13.58,0-23.11-10.17-23.11-25.88,0-18.19,12.24-25.44,22.33-25.44a31.17,31.17,0,0,1,13.08,2.41Z" transform="translate(-15 -12.28)"/><path class="cls-1" d="M718.15,96.13h11.23v10H718.15Zm0,16.29h11.23v37H718.15Z" transform="translate(-15 -12.28)"/><path class="cls-1" d="M769.11,133.87H747.28c0,4.41,2.84,8.46,9.17,8.46a23.05,23.05,0,0,0,10.45-2.91l.21,8.45A34.82,34.82,0,0,1,755.39,150c-13,0-18.76-7.91-18.76-19.2,0-9.95,5.82-19,16.42-19,3.34,0,16.06,0,16.06,19.33Zm-10.23-6.11c0-4.68-1.22-9.09-5.83-9.09-5.77,0-5.77,7.11-5.77,9.09Z" transform="translate(-15 -12.28)"/><path class="cls-1" d="M796.18,126.63c0-4.62-2.06-5.83-4.32-5.83-3.63,0-4.91,3.13-4.91,7.89v20.76H775.71V120.16a64.79,64.79,0,0,0-.29-7.74h10.25c.13,1.62.28,3.68.28,6.17h.14c1.71-4,4.55-6.74,10.44-6.74,8.18,0,10.89,6,10.89,13.36v24.24H796.18Z" transform="translate(-15 -12.28)"/><path class="cls-1" d="M841.39,148.44A40.21,40.21,0,0,1,831.23,150c-14.29,0-17.49-12-17.49-18.71,0-11.36,6.54-19.46,18.34-19.46,3.68,0,5.68.91,8.94,1.77l-.57,8.45a18.34,18.34,0,0,0-6.52-1.56c-8.53,0-8.53,9.39-8.53,10.8,0,7.82,4.82,10.31,9.08,10.31A18.57,18.57,0,0,0,841,140Z" transform="translate(-15 -12.28)"/><path class="cls-1" d="M847.14,96.13h11.22v10H847.14Zm0,16.29h11.22v37H847.14Z" transform="translate(-15 -12.28)"/><path class="cls-1" d="M869.1,114.19c2.91-.92,7.88-2.34,11.93-2.34,13,0,16,5.4,16,13.64V139c0,5.48.06,8,.28,10.46H887.08l-.28-5.13h-.14c-.5,2.27-4.83,5.7-10.17,5.7-6.89,0-11.45-4.49-11.45-11.24,0-12.37,14.43-12.44,18.35-12.44h3.41c0-7.11-5.27-7.11-6.9-7.11-2.85,0-5.89.65-10.3,3.27Zm17.7,17.41c-4.5,0-11.52.28-11.52,6.47,0,4.83,3.92,4.83,4.83,4.83s6.69-.14,6.69-9.17Z" transform="translate(-15 -12.28)"/><path class="cls-1" d="M926.73,121.72a23.16,23.16,0,0,0-9-2c-2.92,0-4.21,1.42-4.21,2.7,0,2.28,1.63,3.06,7.74,5.33,3.83,1.43,7.75,3.84,7.75,10.8,0,8.26-6.18,11.46-13.64,11.46a38.44,38.44,0,0,1-12.15-1.79l.27-8.67a18.59,18.59,0,0,0,9.26,2.55c5.26,0,5.6-1.84,5.6-3.48s-2.9-2.34-7.74-4.32c-3.91-1.63-7.74-4.77-7.74-11.37,0-4,2.84-11.09,13.85-11.09A34.06,34.06,0,0,1,927,113.34Z" transform="translate(-15 -12.28)"/><path class="cls-1" d="M450.66,208.23c0,4.7.14,6.62.28,8.33H440.28c-.14-1.43-.28-3.35-.28-5.9h-.14c-1.14,2.27-3.63,6.47-10.09,6.47-8.31,0-13-8.17-13-20,0-9.94,3.69-18.19,13-18.19,5.18,0,8.17,2.7,9.51,6h.14V163.25h11.24Zm-16.83.79c4.6,0,5.59-6.68,5.59-10.94,0-5.9-1.05-11.44-5.59-11.44-5,0-5.41,5.54-5.41,11.44,0,3.83.29,10.94,5.41,10.94" transform="translate(-15 -12.28)"/><path class="cls-1" d="M490,201H468.22c0,4.42,2.84,8.46,9.16,8.46a23.05,23.05,0,0,0,10.45-2.91L488,215a34.94,34.94,0,0,1-11.72,2.14c-13,0-18.77-7.9-18.77-19.2,0-10,5.83-19,16.43-19,3.34,0,16,0,16,19.33Zm-10.22-6.11c0-4.69-1.22-9.11-5.83-9.11-5.76,0-5.76,7.12-5.76,9.11Z" transform="translate(-15 -12.28)"/><rect class="cls-1" x="482" y="150.97" width="11.23" height="53.3"/><path class="cls-1" d="M530.68,167H548.3c11.17,0,22.17,6.54,22.17,25.23,0,17.11-11.15,24.38-23.66,24.38H530.68Zm11.66,40.94H546c8.45,0,12.22-6.69,12.22-15.71,0-10.23-3.91-16.56-13-16.56h-3Z" transform="translate(-15 -12.28)"/><path class="cls-1" d="M608.85,201H587c0,4.42,2.85,8.46,9.18,8.46a23.16,23.16,0,0,0,10.45-2.91l.21,8.45a35,35,0,0,1-11.73,2.14c-13,0-18.76-7.9-18.76-19.2,0-10,5.82-19,16.41-19,3.34,0,16.06,0,16.06,19.33Zm-10.23-6.11c0-4.69-1.22-9.11-5.83-9.11-5.76,0-5.76,7.12-5.76,9.11Z" transform="translate(-15 -12.28)"/><path class="cls-1" d="M615.47,187.83c0-4.67-.14-6.6-.28-8.3h10.65a58.22,58.22,0,0,1,.29,5.9h.14c1.14-2.27,3.62-6.47,10.08-6.47,8.32,0,13,8.18,13,20,0,9.95-3.69,18.2-13,18.2-5.19,0-8.17-2.71-9.51-6h-.15V231.9H615.47Zm16.83-.77c-4.62,0-5.61,6.68-5.61,10.94,0,5.9,1.07,11.45,5.61,11.45,5,0,5.4-5.55,5.4-11.45,0-3.83-.27-10.94-5.4-10.94" transform="translate(-15 -12.28)"/><path class="cls-1" d="M672.74,179c11.37,0,17.42,7.88,17.42,19s-6,19.2-17.42,19.2-17.42-8-17.42-19.2,6.06-19,17.42-19m0,30.49c3.91,0,5.75-4.28,5.75-11.52s-1.84-11.29-5.75-11.29-5.75,4-5.75,11.29,1.84,11.52,5.75,11.52" transform="translate(-15 -12.28)"/><path class="cls-1" d="M697,187.28a76.2,76.2,0,0,0-.28-7.77H707c.07,2.22.21,4.5.28,6.7h.13c2.28-4,3.85-7.25,10.32-7.25h1.62v10.38a14.46,14.46,0,0,0-3.76-.43c-6.54,0-7.32,5.69-7.32,11.09v16.56H697Z" transform="translate(-15 -12.28)"/><path class="cls-1" d="M721.78,179.53h6.38v-7.6l11-3.5v11.1h7.24v7.89h-7.24v17c0,3.63,1.64,4.62,3.76,4.62a8.26,8.26,0,0,0,3.71-.79v7.89a26.37,26.37,0,0,1-7.84,1c-5.82,0-10.86-2.84-10.86-11V187.42h-6.11Z" transform="translate(-15 -12.28)"/><path class="cls-1" d="M783.89,201H762.08c0,4.42,2.84,8.46,9.16,8.46a23,23,0,0,0,10.44-2.91l.22,8.45a34.86,34.86,0,0,1-11.73,2.14c-13,0-18.75-7.9-18.75-19.2,0-10,5.81-19,16.4-19,3.36,0,16.07,0,16.07,19.33Zm-10.24-6.11c0-4.69-1.2-9.11-5.83-9.11-5.74,0-5.74,7.12-5.74,9.11Z" transform="translate(-15 -12.28)"/><path class="cls-1" d="M174.09,214.78H73.2C40,214.78,15,190.07,15,157.3V41.17H29.47V157.3c0,24.52,18.8,43,43.73,43h86.43V142.45h86.75v14.47H174.09v57.86Z" transform="translate(-15 -12.28)"/><path class="cls-1" d="M130.63,171.41H87.22c-18.34,0-28.85-10.62-28.85-29.15V41.18H72.84V142.26c0,10.57,4,14.68,14.38,14.68h28.94V12.28H246.38V26.75H130.63V171.41Z" transform="translate(-15 -12.28)"/><path class="cls-1" d="M291,243.69H246.38V229.22H291c53.13,0,71.06-18.25,71.06-72.35V142.41c0-54.06-18-72.3-71.28-72.3H174v29H290.75c13.77.14,42.41.43,42.41,43.33v14.46c0,43.42-28.92,43.42-42.81,43.42h-44V185.83h44c14.57,0,28.34,0,28.34-29V142.41c0-28.58-13.64-28.72-28.09-28.87h-131V55.64H290.78c60.9,0,85.75,25.14,85.75,86.77v14.46c0,61.67-24.78,86.82-85.53,86.82Z" transform="translate(-15 -12.28)"/></svg>