<svg id="Capa_1" data-name="Capa 1" xmlns="http://www.w3.org/2000/svg" viewBox="0 0 391 343"><defs><style>.cls-1{fill:#bec6bf;opacity:0.6;isolation:isolate;}.cls-2{fill:#545655;}</style></defs><title>icono_sin_evaluacion</title><rect class="cls-1" width="391" height="343" rx="12"/><path class="cls-2" d="M199,94.62A75.88,75.88,0,1,0,65.18,165.46h86.7l27.9-62.35L210.7,207.92l21.22-42.39H332.73a74.17,74.17,0,0,0,6.78-13.9A75.89,75.89,0,0,0,199,94.62Z"/><path class="cls-2" d="M238.81,176.68,208,238.18l-30.4-103-18.53,41.41H73.51a76,76,0,0,0,7.3,7.17l115.75,115a3.71,3.71,0,0,0,2.6,1.06,3.66,3.66,0,0,0,2.58-1.06L321.82,179.49h0c.87-.89,1.65-1.87,2.49-2.79Z"/><path class="cls-1" d="M210.7,207.92,179.78,103.11l-27.9,62.35H65.18a78,78,0,0,0,7.15,9.9l1.18,1.25h85.58l18.53-41.41,30.4,103,30.79-61.5h86a77.84,77.84,0,0,0,8.2-11.15H231.92Z"/></svg>