<svg id="Capa_1" data-name="Capa 1" xmlns="http://www.w3.org/2000/svg" viewBox="0 0 391 343"><defs><style>.cls-1,.cls-3{fill:#8fe59f;}.cls-1{opacity:0.6;}.cls-2{fill:#26d34f;}</style></defs><title>icono_saludable</title><rect class="cls-1" width="391" height="343" rx="12"/><path class="cls-2" d="M199,94.62A75.88,75.88,0,0,0,58.25,151.09a75,75,0,0,0,6.93,14.37h86.7l27.9-62.35L210.7,207.92l21.22-42.39H332.73a74.53,74.53,0,0,0,6.78-13.9A75.89,75.89,0,0,0,199,94.62Z"/><path class="cls-2" d="M238.81,176.68,208,238.18l-30.4-103-18.53,41.41H73.51a74.87,74.87,0,0,0,7.3,7.17l115.75,115a3.69,3.69,0,0,0,2.6,1.06,3.64,3.64,0,0,0,2.58-1.06L321.82,179.49v0c.87-.89,1.65-1.87,2.49-2.79Z"/><path class="cls-3" d="M210.7,207.92,179.78,103.11l-27.9,62.35H65.18a77.58,77.58,0,0,0,7.15,9.9l1.18,1.25h85.58l18.53-41.41,30.4,103,30.79-61.5h86a77.48,77.48,0,0,0,8.2-11.15H231.92Z"/></svg>