<svg id="Capa_1" data-name="Capa 1" xmlns="http://www.w3.org/2000/svg" viewBox="0 0 526.89 650"><defs><style>.cls-1{fill:#eae7e5;}.cls-2{fill:#d1cbc9;}.cls-3{fill:#bab3af;}.cls-4{fill:#ecf0f1;}.cls-5{fill:#5e5c5a;}.cls-6{fill:#444342;}</style></defs><title>avatar_usuario</title><rect class="cls-1" width="526.89" height="650" rx="0.87"/><path class="cls-2" d="M204.77,294c0,10.8-.9,50-5,61.19s-69.74,40.5-69.74,40.5,43.68,48.14,130.27,48.14,130.27-48.14,130.27-48.14-65.69-29.25-69.74-40.5-4.95-50.39-4.95-61.19Z" transform="translate(0.07 1)"/><path class="cls-3" d="M199.82,355.22c4.05-11.24,5-50.39,5-61.19h19.29c3.7,0,7.89.57,11.55,0,6.11-.94,10.26-2.6,16.7-.63,5,1.53,9.75,4,14.87,5.11,7.73,1.75,15.8.5,23.63-.75l25.67-4.12a117.35,117.35,0,0,1-13.92,21c-4.09,4.76-9.07,8.74-13.63,13-5.49,5.16-11.5,9.71-19.13,10.61-9.47,1.13-19.09.41-28.5-.85l-8-1.06c-.46,8.73-3.66,18.2-5.76,26.71-6.14,25.06-26.44,46.25-41.28,67.55-37.32-14.26-56.23-34.9-56.23-34.9S195.77,366.47,199.82,355.22Z" transform="translate(0.07 1)"/><path class="cls-2" d="M160.35,180.37c5.93-4.42,14.42-.59,18.36,2.47-1.88-32.2-2.52-61.68-.48-67,4.5-11.71,32-49,82.12-49s77.63,37.34,82.12,49.05c2,5.28,1.41,34.76-.48,67,3.95-3.06,12.43-6.89,18.36-2.47,11.64,8.68-3.16,67.15-11.66,70.69-7.65,3.17-11.29,1.29-12.23-2.06h0c-1.45,12.13-2.94,21.22-4.33,24.79-6.3,16.2-34.18,39.09-44.54,43.64-8.91,3.91-20.25,3.15-27.24,3.15s-18.33.76-27.24-3.15c-10.36-4.55-38.24-27.44-44.54-43.64-1.39-3.57-2.88-12.66-4.32-24.79h0c-.95,3.35-4.59,5.23-12.24,2.06C163.51,247.52,148.71,189.05,160.35,180.37Z" transform="translate(0.07 1)"/><path class="cls-3" d="M339.71,200.63c-.84-8,0-16,1.05-23.88a7.81,7.81,0,0,1,1.78-3.95c1.44-28.09,1.76-52.2-.07-56.92-4.49-11.71-32-49-82.12-49s-77.62,37.34-82.12,49.05c-2,5.28-1.4,34.76.48,67-3.94-3.06-12.43-6.89-18.36-2.47-11.64,8.68,3.16,67.15,11.66,70.69,7.65,3.17,11.29,1.29,12.24-2.06h0c1.44,12.13,2.93,21.22,4.32,24.79,4,10.21,16.53,23.08,27.86,32.35-14.26-30.88-15.84-79.72,16.86-93.65,17.09-7.28,38.67-3.91,56.94-4.37,7.6-.2,30.63-2.77,49.52-7.2A2.89,2.89,0,0,1,339.71,200.63Z" transform="translate(0.07 1)"/><path class="cls-4" d="M139,503l.51,35.56H381.16l.51-35.56,29.65,32.85,64.37-51.49-59.37-84.23a61.78,61.78,0,0,0-36.22-24.52l-49.93-11.88a71.74,71.74,0,0,1-139.63,0l-49.93,11.88a61.78,61.78,0,0,0-36.23,24.52L45,484.34l64.37,51.49Z" transform="translate(0.07 1)"/><path class="cls-5" d="M381.16,538.54l.51-35.56.85.94V376.28c-.81-.23-1.6-.5-2.42-.69l-34.29-8.16V538.54Z" transform="translate(0.07 1)"/><path class="cls-5" d="M313.31,538.54v-143a71.62,71.62,0,0,1-36.7,21.5V538.54Z" transform="translate(0.07 1)"/><path class="cls-5" d="M139.54,538.54h35.35V367.43l-34.28,8.16c-.82.19-1.62.46-2.42.69V503.92L139,503Z" transform="translate(0.07 1)"/><path class="cls-5" d="M244.1,538.54V417a71.61,71.61,0,0,1-36.71-21.5v143Z" transform="translate(0.07 1)"/><path class="cls-6" d="M330.17,363.71a71.74,71.74,0,0,1-139.63,0l-15.65,3.72a87.82,87.82,0,0,0,170.92,0Z" transform="translate(0.07 1)"/><polygon class="cls-6" points="400.18 524.41 411.39 536.83 475.77 485.34 466.55 472.26 400.18 524.41"/><polygon class="cls-6" points="120.67 524.41 109.46 536.83 45.08 485.34 54.3 472.26 120.67 524.41"/><polygon class="cls-6" points="139.11 503.98 139.62 539.54 217.03 539.54 159.74 529.68 156.05 447.22 90.56 521.71 109.46 536.83 139.11 503.98"/><polygon class="cls-5" points="186.28 219.95 186.28 147.09 164.78 136.11 178.38 217.76 186.28 219.95"/><polygon class="cls-5" points="334.57 219.95 334.57 147.09 356.07 136.11 342.47 217.76 334.57 219.95"/><path class="cls-6" d="M186.21,177c0-10.76,23.71-16.47,23.71-31.83,18.65,18.65,39.77,29.85,124.58,29.85L356,135.11c0-44.77-31.81-82.52-95.75-82.52S188.4,96.05,188.4,96.05s-23.7,3.51-23.7,39.06Z" transform="translate(0.07 1)"/><rect class="cls-6" x="279.43" y="504.64" width="74.24" height="19.59"/><rect class="cls-4" x="320.78" y="513.1" width="30.07" height="4.71"/><polygon class="cls-3" points="47.64 487.38 12.54 540.36 95.66 540.36 103.38 531.96 47.64 487.38"/><path class="cls-3" d="M47.57,486.38l-8.52,12.85c10.79,7.85,21.51,15.8,31.77,24.35,6.05,5,3.94,12-1,15.78H95.59l7.71-8.4Z" transform="translate(0.07 1)"/><polygon class="cls-3" points="473.21 487.38 508.32 540.36 425.19 540.36 417.47 531.96 473.21 487.38"/><path class="cls-3" d="M473.14,486.38l8.51,12.85c-10.79,7.85-21.51,15.8-31.76,24.35-6.06,5-3.94,12,1,15.78H425.12L417.4,531Z" transform="translate(0.07 1)"/></svg>