<svg id="Capa_1" data-name="Capa 1" xmlns="http://www.w3.org/2000/svg" viewBox="0 0 391 343"><defs><style>.cls-1{fill:#f27321;}.cls-2{fill:#fff;}</style></defs><title>icono_ufd</title><rect class="cls-1" width="391" height="343" rx="12"/><path class="cls-2" d="M174.87,251.68H76c-32.51,0-57-24.22-57-56.32V81.59H33.17V195.36c0,24,18.42,42.14,42.85,42.14h84.67V180.82h85V195H174.87v56.69Z"/><path class="cls-2" d="M132.28,209.19H89.75c-18,0-28.26-10.41-28.26-28.56v-99H75.66v99c0,10.35,4,14.38,14.09,14.38h28.36V53.28H245.69V67.45H132.28V209.19Z"/><path class="cls-2" d="M289.41,280H245.69V265.83h43.72c52,0,69.61-17.89,69.61-70.89V180.77c0-53-17.62-70.83-69.83-70.83H174.79v28.38H289.16c13.49.14,41.55.42,41.55,42.45v14.17c0,42.54-28.33,42.54-41.94,42.54H245.69V223.31h43.08c14.28,0,27.77,0,27.77-28.37V180.77c0-28-13.37-28.13-27.52-28.28H160.62V95.76H289.19c59.67,0,84,24.63,84,85v14.17c0,60.42-24.28,85.06-83.79,85.06Z"/></svg>