<?xml version="1.0" encoding="utf-8"?>
<!-- Generator: Adobe Illustrator 24.0.0, SVG Export Plug-In . SVG Version: 6.00 Build 0)  -->
<svg version="1.1" id="Capa_1" xmlns="http://www.w3.org/2000/svg" xmlns:xlink="http://www.w3.org/1999/xlink" x="0px" y="0px"
	 viewBox="0 0 255.4 865.9" style="enable-background:new 0 0 255.4 865.9;" xml:space="preserve">
<style type="text/css">
	.st0{fill:none;stroke:#FFFFFF;stroke-width:4;stroke-miterlimit:10;}
</style>
<title>silueta_m_saludable</title>
<path class="st0" d="M97.1,103.7C92.2,96,88.7,91.6,86.9,81c-2.4-2.5-4.5-8.4-5.4-15.4c-1.2-9.6,0.4-17.8,3.6-18.2
	c0.5,0,1,0.1,1.5,0.3C88.9,28,92.4,1.5,127.2,1.5c38,0,38.3,27,40.6,46.3c0.4-0.3,1-0.4,1.5-0.4c3.2,0.4,4.8,8.5,3.6,18.2
	c-0.9,7-3.1,12.9-5.4,15.4c-1.8,10.6-5.3,15-10.2,22.7c-0.8,1.4-1.2,3.1-1.1,4.7l2.2,17.3c0.3,1.6,1.2,3,2.6,3.8l32.3,19.9
	c1.2,0.7,5.8,1.5,7.1,1.8c10.6,2.5,50.4,15.4,41.9,68.8c-0.2,1.7-0.2,3.4,0,5.1c1.7,10.2,15.3,37.3,4.6,71.3
	c-2.1,6.8,0,17.1,2.3,23.8c3.8,11.2,9,26.3-1.4,60.3l2,44c0,0-0.8,51.1-30.9,76.7c-2.2,1.8-4.5,0.9-4.9-1.9
	c-1.8-12.7-5.1-46.2,6.2-67.7c1.5-2.9,2.2-6.2,2-9.5c-1.5-11.9-5.5-41.9-9.1-59.6c0,0-5-9.3-1.9-33.7c0.9-7-5.9-31.7-3.9-24.9
	c3,10-9.1-28.2-5.9-56.8c0,0-10,81.7-9.2,104.5c0.3,10,4.6,46.4,9.1,93c7.6,80.2,0.3,129.6-15.3,187.5c-1.9,6.9-2.2,18-2.2,25.1
	c0.1,11.2-1.4,46.8-8.1,82.4c-5.1,26.9-5.7,30.3-10.9,44.8c-1.4,4.7-0.9,9.7,1.3,14l21.8,37.5c1.4,2.5,2.9,6.8,2.7,9.6
	c-0.2,4.8-1.4,11.5-6.4,13.7c-7.4,3.3-20.6,10.3-32.4-0.7c-2.1-1.9-3.9-6.1-4.4-8.9l-7.6-38.9c-1.5-3.3-2.1-7-2-10.6
	c0.4-4.3,3-10.3,2.9-14.6l-2.9-77.2c0,0-1.5-35.8,2.2-58.8c1.1-7,2.3-18.2,1.4-25.3c-4.3-33.9-15.1-126.2-11-166.9h-6.2
	c4.2,40.6-7.2,133-11.7,166.9c-0.9,7,0.2,18.2,1.4,25.2c3.8,23,2.9,58.8,2.9,58.8l-2.9,77.3c-0.2,4.3,2.5,10.3,2.9,14.6
	c0.2,3.6-0.5,7.3-2,10.6l-7.6,38.8c-0.5,2.8-2.4,6.9-4.4,8.9c-11.8,10.9-25.1,4-32.4,0.7c-5-2.2-6.2-8.9-6.4-13.7
	c-0.1-2.8,1.3-7.2,2.7-9.6l21.8-37.5c2.2-4.3,2.6-9.4,1.2-14c-4.3-11.7-5.2-16-10.7-44.8c-6.8-34.9-8-70.9-7.6-82.4
	c0.2-7.1-0.2-18.3-2-25.1c-15.7-57.2-22-122.3-16.2-183.2c4.6-49,9-87.3,9.3-97.3c0.7-23.9-9.2-104.5-9.2-104.5
	c-0.7,31.6-2.6,45.8-5.9,56.8c-2,6.8-5.4,17.9-3.5,24.8c2.9,11.2,2,23.1-2.3,33.8c-3.5,17.7-7.6,47.6-9.1,59.5
	c-0.2,3.3,0.5,6.6,2,9.5c11.4,21.5,8,55,6.2,67.7c-0.4,2.8-2.7,3.8-4.9,1.9C5.5,475.5,4.6,424.4,4.6,424.4l2-44
	c-9.5-34.6-3.6-47.8-0.3-59.8c1.9-6.9,2.8-17.4,1.1-24.4c-8.5-35.3,3-61.1,4.7-71.3c0.2-1.7,0.2-3.4,0-5.1
	C3.7,166.4,43.4,153.5,54,151c1.4-0.3,8.3-1.1,9.5-1.8l30-19.9c1.3-0.9,2.3-2.3,2.6-3.8l2.1-17.2C98.3,106.8,98,105.1,97.1,103.7z"
	/>
</svg>
