<?xml version="1.0" encoding="utf-8"?>
<!-- Generator: Adobe Illustrator 24.0.0, SVG Export Plug-In . SVG Version: 6.00 Build 0)  -->
<svg version="1.1" id="Capa_1" xmlns="http://www.w3.org/2000/svg" xmlns:xlink="http://www.w3.org/1999/xlink" x="0px" y="0px"
	 viewBox="0 0 285.2 864" style="enable-background:new 0 0 285.2 864;" xml:space="preserve">
<style type="text/css">
	.st0{fill:none;stroke:#ED7C15;stroke-width:4;stroke-miterlimit:10;}
</style>
<title>silueta_h_sobrepeso</title>
<path class="st0" d="M105.6,103.1c-4.9-7.7-6.1-12.1-7.9-22.6c-2.4-2.5-4.5-8.3-5.4-15.4c-1.2-9.6,0.4-17.7,3.6-18.1
	c0.5,0,1,0.1,1.5,0.3c2.4-19.7,8.2-46.2,43-46.2c38,0,40.6,27,43,46.2c0.4-0.3,1-0.4,1.5-0.4c3.2,0.4,4.8,8.5,3.6,18.1
	c-0.9,7-3.1,12.9-5.4,15.4c-1.8,10.6-2.9,15-7.8,22.7c-0.8,1.4-1.2,3.1-1.1,4.7l-0.2,17.2c0.3,1.6,1.2,3,2.6,3.8
	c0,0,35.7,18.8,37,19.3c39.9,15.2,53.4,74.7,53.7,76.1c1.7,10.2,14.8,48.5,11.8,71.2c-0.9,7,0.2,16.8,2.2,23.8
	c6.5,22.4,0.6,104.2,0.6,104.2s-7.9,51.1-38,76.6c-2.2,1.8-4.5,0.9-4.9-1.9c-1.8-12.7-5.1-46.1,6.2-67.6c1.5-2.9,2.2-6.2,2-9.5
	c-1.5-11.9-12.2-73.9-11-93.1c0.5-7.9,0.4-17.3-1-24.8c-2-11.3-14.8-26.8-15.8-36.6c0,0,6.6,25.8,9.7,48.8
	c14.3,107.1,8.3,235.7-13.3,315.7c-1.9,6.9-4.6,18-4.5,25.1c0.1,11.1-1.4,46.8-8.1,82.3c-5.1,26.8-5.7,30.3-10.9,44.7
	c-1.4,4.6-0.9,9.6,1.3,13.9l14.7,37.5c1.4,2.5,2.8,6.8,2.7,9.6c-0.2,4.8-1.4,11.5-6.4,13.7c-7.3,3.3-20.6,10.2-32.4-0.7
	c-2.1-1.9-3.9-6.1-4.4-8.8l-7.5-38.8c-1.5-3.3-2.1-7-2-10.6c0.4-4.2,3-10.3,2.9-14.5l-2.9-77.2c0,0-1.5-35.8,2.2-58.8
	c1.1-7,2.3-18.2,1.4-25.2c-4.3-33.8-22.2-126.1-18-166.7h-6.1c4.2,40.6-14.3,132.9-18.8,166.7c-0.9,7,0.2,18.2,1.4,25.2
	c3.8,23,2.9,58.8,2.9,58.8l-2.9,77.2c-0.2,4.3,2.5,10.3,2.9,14.5c0.1,3.6-0.5,7.3-2,10.6l-7.5,38.8c-0.5,2.8-2.4,6.9-4.4,8.8
	c-11.8,10.9-25.1,4-32.4,0.7c-5-2.2-6.2-8.9-6.4-13.7c-0.1-2.8,1.3-7.1,2.7-9.6L92.2,797c2.1-3.7-2.1-9.9-3.6-13.9
	c-4.3-11.7-5.2-16-10.7-44.8c-6.8-34.9-8-70.8-7.6-82.3c0.2-7.1-0.2-18.2-2-25.1c-22.8-82.9-27.2-216.6-14-315.7
	c3.2-23.6,7.3-48.8,7.3-48.8c-1.1,9.8-10.2,25.6-13.5,36.6c-2,6.8-1.7,17.7-0.7,24.7c2.8,18.4-9.9,81.3-11.4,93.2
	c-0.2,3.3,0.5,6.6,2,9.5c11.4,21.5,8,55,6.2,67.6c-0.4,2.8-2.7,3.8-4.9,1.9c-30.1-25.6-38-76.6-38-76.6s-1.6-91.7,1.8-103.7
	c1.9-6.8,2-17.3,1.1-24.3c-3-22.7,0.6-46.9,2.3-57c0.2-1.4,16.2-76.4,60.8-90.4c1.4-0.4,37.1-19.3,37.1-19.3
	c1.3-0.9,2.3-2.3,2.6-3.8l-0.2-17.2C106.8,106.1,106.4,104.5,105.6,103.1z"/>
</svg>
