<?xml version="1.0" encoding="utf-8"?>
<!-- Generator: Adobe Illustrator 24.0.0, SVG Export Plug-In . SVG Version: 6.00 Build 0)  -->
<svg version="1.1" id="Capa_1" xmlns="http://www.w3.org/2000/svg" xmlns:xlink="http://www.w3.org/1999/xlink" x="0px" y="0px"
	 viewBox="0 0 202.2 864.9" style="enable-background:new 0 0 202.2 864.9;" xml:space="preserve">
<style type="text/css">
	.st0{fill:none;stroke:#874EA5;stroke-width:4;stroke-miterlimit:10;}
</style>
<title>silueta_h_bajo_peso</title>
<path class="st0" d="M76.8,103.2c-3.9-7.7-6.7-12.1-8.1-22.7c-1.9-2.5-3.6-8.4-4.3-15.4c-1-9.6,0.3-17.8,2.8-18.2
	c0.4,0,0.8,0.1,1.2,0.3C70.3,27.5,73.1,1,100.7,1c30.2,0,30.4,27,32.2,46.3c0.3-0.3,0.8-0.4,1.2-0.4c2.6,0.4,3.8,8.5,2.9,18.2
	c-0.7,7-2.4,12.9-4.3,15.4c-1.4,10.6-4.2,15-8.1,22.7c-0.7,1.5-1,3.1-0.9,4.7l1.7,17.3c0.2,1.5,0.9,2.8,2,3.8l25.6,19.9
	c1,0.7,4.6,1.5,5.6,1.8c8.4,2.5,39.9,15.4,33.2,68.8c-0.2,1.7-0.2,3.4,0,5.1c1.4,10.2,12.1,37.3,3.7,71.3c-1.7,6.8,0,17.1,1.8,23.8
	c3,11.2,7.2,26.3-1.1,60.3l1.6,44c0,0-0.6,51.1-24.5,76.7c-1.7,1.8-3.6,0.9-3.9-1.9c-1.4-12.7-4.1-46.2,4.9-67.7
	c1.2-3,1.8-6.3,1.6-9.5c-1.2-11.9-4.4-41.8-7.2-59.5c0,0-4-9.3-1.5-33.7c0.7-7-4.7-31.7-3.1-24.9c2.4,10-7.2-28.2-4.6-56.8
	c0,0-7.9,81.7-7.3,104.5c0.3,10,3.7,46.4,7.2,93c6.1,80.2,0.3,129.6-12.2,187.5c-1.5,6.9-1.8,18-1.7,25.1
	c-0.3,27.6-2.5,55.1-6.5,82.4c-4,26.9-4.5,30.3-8.6,44.8c-1.1,4.7-0.8,9.5,1,14l17.3,37.5c1.3,3,2.1,6.3,2.2,9.6
	c-0.1,4.8-1.1,11.5-5.1,13.7c-5.8,3.3-16.4,10.3-25.7-0.7c-1.7-1.9-3.1-6.1-3.5-8.9l-6-38.8c-1.2-3.4-1.7-7-1.6-10.6
	c0.3-4.3,2.4-10.3,2.3-14.6l-2.3-77.3c0,0-1.2-35.8,1.7-58.8c0.9-7,1.8-18.2,1.1-25.3c-3.4-33.9-12-126.3-8.7-166.9h-4.9
	c3.3,40.6-5.7,133-9.3,166.9c-0.7,7,0.2,18.2,1.1,25.2c3,23,2.3,58.8,2.3,58.8l-2.4,77.3c-0.1,4.3,2,10.3,2.3,14.6
	c0.1,3.6-0.4,7.2-1.6,10.6l-6,38.8c-0.4,2.8-1.9,6.9-3.5,8.9c-9.4,10.9-19.9,4-25.7,0.7c-4-2.2-4.9-8.9-5.1-13.7
	c0.1-3.3,0.8-6.6,2.2-9.6l17.3-37.5c1.7-4.4,2.1-9.3,0.9-13.9c-3.4-11.7-4.1-16-8.5-44.8c-5.4-34.9-6.3-70.9-6.1-82.4
	c0.2-7.1-0.1-18.3-1.6-25.1c-12.9-60.1-17.2-121.8-12.8-183.2c3.7-49,7.2-87.3,7.4-97.3c0.5-23.9-7.3-104.5-7.3-104.5
	c-0.6,31.6-2.1,45.8-4.7,56.8c-1.6,6.8-4.3,17.9-2.8,24.8c2.3,11.2,1.7,22.8-1.8,33.7c-2.8,17.7-6,47.6-7.2,59.5
	c-0.2,3.2,0.4,6.5,1.6,9.5c9,21.5,6.4,55,5,67.7c-0.3,2.8-2.2,3.8-3.9,1.9C4.1,475,3.5,423.9,3.5,423.9l1.6-44
	c-7.5-34.6-2.9-47.8-0.2-59.8c1.5-6.9,2.2-17.4,0.9-24.4c-6.7-35.3,2.3-61.1,3.7-71.3c0.2-1.7,0.2-3.4,0-5.1
	c-6.7-53.4,24.8-66.3,33.2-68.8c1.1-0.3,6.5-1.1,7.5-1.8L74,128.9c1.1-1,1.8-2.3,2-3.8l1.7-17.2C77.8,106.3,77.5,104.6,76.8,103.2z"
	/>
</svg>
